<?xml version="1.0" encoding="iso-8859-1"?>
<!-- Generator: Adobe Illustrator 19.1.0, SVG Export Plug-In . SVG Version: 6.00 Build 0)  -->
<svg version="1.1" id="Capa_1" xmlns="http://www.w3.org/2000/svg" xmlns:xlink="http://www.w3.org/1999/xlink" x="0px" y="0px"
	 viewBox="0 0 326.329 326.329" style="enable-background:new 0 0 326.329 326.329;" xml:space="preserve">
<g>
	<path fill="#BBBBCC" d="M107.579,165.385H44.564v64.795h6.427h53.883c19.107-0.443,29.628-11.697,29.628-31.684
		C134.501,172.307,116.904,165.385,107.579,165.385z M104.719,217.327H57.417v-39.088h50.168c2.346,0.032,14.062,1.15,14.062,20.257
		C121.647,214.743,113.016,217.134,104.719,217.327z M127.759,118.681c0-21.08-13.214-26.652-20.193-26.652H44.557v56.241h59.512
		C120.015,148.27,127.759,138.592,127.759,118.681z M57.417,104.883h50.161c0.084,0,7.339,0.154,7.339,13.798
		c0,16.735-5.264,16.735-10.842,16.735H57.417C57.417,135.417,57.417,104.883,57.417,104.883z M307.428,129.099
		c-12.911-14.698-31.678-22.153-55.753-22.153c-41.903,0-61.8,22.243-71.119,40.894c-4.904,9.814-7.391,19.57-8.663,26.961
		c-2.05-5.906-5.154-11.883-9.852-16.851c-2.59-2.744-5.489-5.007-8.676-6.793c8.483-6.504,15.649-17.622,15.649-35.483
		c0-35.348-24.113-58.195-61.447-58.195H0v207.24l107.373-0.006l0.887,0.013c4.537,0,20.54-0.611,35.99-8.522
		c11.877-6.073,25.605-17.783,30.026-39.699c2.847,9.627,7.783,20.219,16.369,29.416c14.152,15.167,34.679,22.854,60.631,22.854
		c0.019,0,0.039,0,0.058,0c0,0,1.093,0.077,3.027,0.077c33.972,0,70.297-15.283,70.29-58.176v-6.427h-47.417l0.366,6.78
		c0.006,0.039,0,4.12-3.374,7.686c-3.985,4.21-11.382,6.433-21.774,6.453l-0.797,0.019c-2.05,0-9.242-0.289-15.495-4.01
		c-5.861-3.483-9.435-9.19-10.636-17.005h99.487l0.726-5.591C325.95,196.851,330.982,155.931,307.428,129.099z M162.901,200.938
		c0,20.752-8.246,35.502-24.506,43.831c-13.226,6.767-27.423,7.102-30.129,7.102H12.854V70.345h94.706
		c30.425,0,48.593,16.954,48.593,45.341c0,27.7-21.318,30.373-23.709,30.585l0.476,12.834c8.393,0,14.859,2.5,19.743,7.648
		C163.916,178.605,162.92,200.373,162.901,200.938z M313.366,191.324H212.182v6.427c0,19.949,9.46,29.763,17.385,34.474
		c8.824,5.231,18.381,5.81,22.076,5.81c0.726,0,1.234-0.032,1.324-0.039c13.747-0.019,24.023-3.535,30.579-10.444
		c3.355-3.548,5.096-7.333,5.99-10.456h21.896c-4.255,35.977-44.326,38.902-57.077,38.902c-1.395,0-2.217-0.051-2.654-0.064
		c-22.597,0-39.943-6.285-51.575-18.696c-18.368-19.595-16.723-48.465-16.69-49.185c0-0.167,0.084-17.352,8.631-34.461
		c11.202-22.417,31.26-33.792,59.622-33.792c20.2,0,35.688,5.958,46.035,17.738C312.813,154.678,313.771,180.148,313.366,191.324z
		 M252.452,135.417c-28.175,0-38.857,23.227-40.573,35.508l-1.022,7.314h77.591l0.084-6.337c0.006-0.662,0.084-16.118-10.456-26.781
		C271.72,138.682,263.102,135.417,252.452,135.417z M226.739,165.385c3.014-7.204,10.007-17.115,25.707-17.115
		c7.057,0,12.571,1.954,16.427,5.81c3.368,3.387,5.071,7.757,5.932,11.305H226.739z M296.496,68.931h-93.054v36.794h93.054V68.931z
		 M283.642,92.865h-67.347V81.778h67.347V92.865z"/>
</g>
<g>
</g>
<g>
</g>
<g>
</g>
<g>
</g>
<g>
</g>
<g>
</g>
<g>
</g>
<g>
</g>
<g>
</g>
<g>
</g>
<g>
</g>
<g>
</g>
<g>
</g>
<g>
</g>
<g>
</g>
</svg>
