<?xml version="1.0" encoding="iso-8859-1"?>
<!-- Generator: Adobe Illustrator 19.1.0, SVG Export Plug-In . SVG Version: 6.00 Build 0)  -->
<svg version="1.1" id="Capa_1" xmlns="http://www.w3.org/2000/svg" xmlns:xlink="http://www.w3.org/1999/xlink" x="0px" y="0px"
	 viewBox="0 0 306.457 306.457" style="enable-background:new 0 0 306.457 306.457;" xml:space="preserve">
<g>
	<g>
		<path fill="#BBBBCC" d="M153.225,306.457c-84.487,0-153.222-68.735-153.222-153.229C0.003,68.741,68.738,0,153.225,0
			s153.229,68.735,153.229,153.229C306.454,237.716,237.713,306.457,153.225,306.457z M153.225,12.847
			c-77.398,0-140.368,62.97-140.368,140.375s62.97,140.375,140.368,140.375c77.405,0,140.375-62.977,140.375-140.375
			S230.63,12.847,153.225,12.847z M153.225,285.229c-29.583,0-57.559-9.615-80.907-27.815l-4.113-3.201l2.282-4.685
			c2.77-5.675,29.139-56.171,102.026-81.563l5.881-2.044l3.059,5.521c17.847,46.408,25.245,85.458,27.089,96.325l0.848,4.994
			l-4.672,1.986C188.412,281.701,171.086,285.229,153.225,285.229z M84.574,250.518c20.155,14.313,43.78,21.851,68.651,21.851
			c14.403,0,28.419-2.539,41.729-7.558c-2.661-14.158-9.492-45.675-23.272-82.874C117.01,202.619,92.248,237.478,84.574,250.518z
			 M218.612,268.282l-1.665-9.852c-1.163-6.89-7.776-43.529-24.049-88.279l-2.661-7.307l7.68-1.228
			c8.696-1.395,17.809-2.095,27.083-2.095c27.944,0,49.84,6.375,53.947,7.654l5.309,1.658l-0.88,5.495
			c-5.726,35.752-26.311,67.944-56.485,88.356L218.612,268.282z M207.648,173.274c10.951,31.504,17.147,58.381,20.065,72.829
			c21.369-17.237,36.286-41.434,41.929-68.182c-8.438-2.159-24.859-5.546-44.641-5.546
			C219.113,172.368,213.297,172.67,207.648,173.274z M61.18,248.082l-5.887-6.53c-21.851-24.248-33.882-55.56-33.882-88.144
			c0-1.356,0.026-2.699,0.077-4.049l0.212-6.33l6.337,0.129c5.334,0.103,65.245,0.868,126.898-17.571l5.135-1.536l2.436,4.782
			c3.837,7.539,7.307,14.801,10.309,21.581l2.995,6.755l-7.102,2.031c-1.613,0.463-3.207,0.951-4.788,1.446
			c-61.852,19.994-94.751,73.793-98.298,79.873L61.18,248.082z M34.297,156.037c0.559,25.624,9.364,50.239,25.071,70.387
			c12.037-17.674,44.988-59.288,98.697-77.392c-1.459-3.13-3.008-6.343-4.634-9.627C101.592,154.083,51.887,155.896,34.297,156.037z
			 M285.104,160.182l-7.841-1.658c-2.699-0.578-27.269-5.617-57.109-5.617c-9.865,0-19.306,0.559-28.066,1.658l-4.891,0.617
			l-1.864-4.557c-0.868-2.121-1.748-4.242-2.661-6.382c-2.416-5.694-5.174-11.697-8.188-17.86l-3.021-6.176l6.363-2.596
			c44.924-18.342,65.13-44.409,67.289-47.321l4.91-6.632l5.225,6.388c18.921,23.117,29.499,52.282,29.776,82.122L285.104,160.182z
			 M220.161,140.054c21.928,0,41.202,2.622,51.678,4.383c-1.645-21.556-9.21-42.404-21.768-60.02
			c-8.953,9.891-28.329,27.886-61.113,42.424c1.992,4.235,3.85,8.374,5.54,12.372c0.296,0.681,0.585,1.362,0.874,2.044
			C203.245,140.458,211.562,140.054,220.161,140.054z M32.735,134.167l-10.122-0.129l1.594-7.629
			c8.4-40.193,35.675-74.699,72.97-92.289l4.807-2.269l3.13,4.3c4.216,5.791,26.305,36.556,46.89,73.144l4.075,7.23l-8.021,2.127
			C93.886,133.055,46.09,134.167,32.735,134.167z M97.89,48.137c-28.844,15.238-50.399,41.909-59.198,73.118
			c17.005-0.353,54.834-2.416,97.945-12.944C120.873,81.119,105.011,58.144,97.89,48.137z M167.66,112.9l-2.667-4.91
			c-20.682-38.002-43.741-69.204-46.299-72.636l-5.823-7.809l9.473-2.282c10.097-2.436,20.489-3.67,30.887-3.67
			c32.218,0,63.253,11.8,87.392,33.22l4.287,3.805l-3.297,4.692c-2.127,3.033-22.128,30.155-68.709,47.623L167.66,112.9z
			 M134.928,35.868c8.329,11.742,23.818,34.486,38.612,61.016c30.245-12.359,46.98-28.458,53.889-36.369
			c-21.048-16.845-47.167-26.061-74.204-26.061C147.101,34.454,140.976,34.923,134.928,35.868z"/>
	</g>
</g>
<g>
</g>
<g>
</g>
<g>
</g>
<g>
</g>
<g>
</g>
<g>
</g>
<g>
</g>
<g>
</g>
<g>
</g>
<g>
</g>
<g>
</g>
<g>
</g>
<g>
</g>
<g>
</g>
<g>
</g>
</svg>
