<svg
        xmlns="http://www.w3.org/2000/svg"
        xmlns:xlink="http://www.w3.org/1999/xlink"
        width="15px" height="29px">
    <path fill-rule="evenodd"  fill="rgb(26, 26, 26)"
          d="M4.391,15.991 L4.391,28.698 L9.513,28.698 L9.513,15.991 L13.766,15.991 L14.419,11.036 L9.513,11.036 L9.513,7.872 C9.513,7.068 9.681,6.465 10.016,6.064 C10.350,5.662 10.998,5.461 11.958,5.461 L14.586,5.461 L14.586,1.041 C13.682,0.907 12.410,0.840 10.769,0.840 C8.838,0.840 7.292,1.413 6.132,2.556 C4.971,3.700 4.391,5.310 4.391,7.386 L4.391,11.036 L0.122,11.036 L0.122,15.991 L4.391,15.991 Z"/>
</svg>