<svg
        xmlns="http://www.w3.org/2000/svg"
        xmlns:xlink="http://www.w3.org/1999/xlink"
        width="27px" height="27px">
    <path fill-rule="evenodd"  fill="rgb(26, 26, 26)"
          d="M1.502,25.727 C2.149,26.374 2.925,26.698 3.829,26.698 L22.948,26.698 C23.852,26.698 24.627,26.374 25.275,25.727 C25.922,25.079 26.246,24.304 26.246,23.400 L26.246,4.281 C26.246,3.377 25.922,2.602 25.275,1.954 C24.627,1.307 23.852,0.983 22.948,0.983 L3.829,0.983 C2.925,0.983 2.149,1.307 1.502,1.954 C0.855,2.602 0.531,3.377 0.531,4.281 L0.531,23.400 C0.531,24.304 0.855,25.079 1.502,25.727 ZM3.394,11.865 L5.754,11.865 C5.531,12.568 5.420,13.299 5.420,14.058 C5.420,16.201 6.201,18.029 7.763,19.541 C9.326,21.053 11.206,21.809 13.405,21.809 C14.856,21.809 16.195,21.463 17.423,20.771 C18.651,20.079 19.622,19.139 20.336,17.950 C21.050,16.762 21.407,15.464 21.407,14.058 C21.407,13.299 21.296,12.568 21.073,11.865 L23.333,11.865 L23.333,22.713 C23.333,23.004 23.232,23.246 23.031,23.441 C22.830,23.637 22.590,23.734 22.311,23.734 L4.415,23.734 C4.125,23.734 3.882,23.637 3.687,23.441 C3.492,23.246 3.394,23.004 3.394,22.713 L3.394,11.865 ZM13.405,8.785 C14.834,8.785 16.053,9.273 17.063,10.250 C18.073,11.226 18.578,12.407 18.578,13.790 C18.578,15.174 18.073,16.355 17.063,17.331 C16.053,18.308 14.834,18.796 13.405,18.796 C11.988,18.796 10.774,18.308 9.764,17.331 C8.754,16.355 8.249,15.174 8.249,13.790 C8.249,12.407 8.754,11.226 9.764,10.250 C10.774,9.273 11.988,8.785 13.405,8.785 L13.405,8.785 ZM18.109,5.001 C18.109,4.689 18.221,4.418 18.444,4.189 C18.667,3.961 18.941,3.846 19.265,3.846 L22.178,3.846 C22.501,3.846 22.774,3.961 22.998,4.189 C23.221,4.418 23.333,4.689 23.333,5.001 L23.333,7.764 C23.333,8.087 23.221,8.361 22.998,8.584 C22.774,8.807 22.501,8.919 22.178,8.919 L19.265,8.919 C18.941,8.919 18.667,8.807 18.444,8.584 C18.221,8.361 18.109,8.087 18.109,7.764 L18.109,5.001 Z"/>
</svg>