<svg width="0" height="0" class="hidden">
    <symbol xmlns="http://www.w3.org/2000/svg" id="facebook">
        <path fill-rule="evenodd" d="M4.391 15.991v12.707h5.122V15.991h4.253l.653-4.955H9.513V7.872c0-.804.168-1.407.503-1.808.334-.402.982-.603 1.942-.603h2.628v-4.42C13.682.907 12.41.84 10.769.84c-1.931 0-3.477.573-4.637 1.716C4.971 3.7 4.391 5.31 4.391 7.386v3.65H.122v4.955h4.269z"></path>
    </symbol>
    <symbol xmlns="http://www.w3.org/2000/svg" id="instagram">
        <path fill-rule="evenodd" d="M1.502 25.727c.647.647 1.423.971 2.327.971h19.119c.904 0 1.679-.324 2.327-.971.647-.648.971-1.423.971-2.327V4.281c0-.904-.324-1.679-.971-2.327-.648-.647-1.423-.971-2.327-.971H3.829c-.904 0-1.68.324-2.327.971-.647.648-.971 1.423-.971 2.327V23.4c0 .904.324 1.679.971 2.327zm1.892-13.862h2.36a7.209 7.209 0 0 0-.334 2.193c0 2.143.781 3.971 2.343 5.483 1.563 1.512 3.443 2.268 5.642 2.268 1.451 0 2.79-.346 4.018-1.038a7.804 7.804 0 0 0 2.913-2.821 7.418 7.418 0 0 0 1.071-3.892c0-.759-.111-1.49-.334-2.193h2.26v10.848a.972.972 0 0 1-.302.728.994.994 0 0 1-.72.293H4.415a.985.985 0 0 1-.728-.293.988.988 0 0 1-.293-.728V11.865zm10.011-3.08c1.429 0 2.648.488 3.658 1.465 1.01.976 1.515 2.157 1.515 3.54 0 1.384-.505 2.565-1.515 3.541-1.01.977-2.229 1.465-3.658 1.465-1.417 0-2.631-.488-3.641-1.465-1.01-.976-1.515-2.157-1.515-3.541 0-1.383.505-2.564 1.515-3.54 1.01-.977 2.224-1.465 3.641-1.465zm4.704-3.784c0-.312.112-.583.335-.812.223-.228.497-.343.821-.343h2.913c.323 0 .596.115.82.343.223.229.335.5.335.812v2.763c0 .323-.112.597-.335.82a1.118 1.118 0 0 1-.82.335h-2.913c-.324 0-.598-.112-.821-.335a1.117 1.117 0 0 1-.335-.82V5.001z"></path>
    </symbol>
    <symbol xmlns="http://www.w3.org/2000/svg" id="twitter">
        <path fill-rule="evenodd" d="M8.571 21.555c1.92 0 3.722-.304 5.408-.913 1.685-.608 3.125-1.423 4.319-2.444a16.36 16.36 0 0 0 3.089-3.524 15.68 15.68 0 0 0 1.933-4.16 15.362 15.362 0 0 0 .62-5.047 11.335 11.335 0 0 0 2.712-2.796 10.801 10.801 0 0 1-3.114.837c1.172-.703 1.964-1.696 2.377-2.98a10.614 10.614 0 0 1-3.432 1.306C21.412.695 20.095.126 18.532.126c-1.495 0-2.77.528-3.825 1.582-1.055 1.055-1.582 2.33-1.582 3.826 0 .401.045.814.134 1.238A15.051 15.051 0 0 1 7.04 5.107a15.332 15.332 0 0 1-4.931-3.993 5.299 5.299 0 0 0-.736 2.729c0 .926.217 1.785.653 2.578a5.398 5.398 0 0 0 1.758 1.925 5.361 5.361 0 0 1-2.445-.686v.067c0 1.305.41 2.452 1.231 3.44a5.312 5.312 0 0 0 3.105 1.866 5.586 5.586 0 0 1-1.423.185c-.312 0-.653-.028-1.021-.084a5.282 5.282 0 0 0 1.909 2.67 5.265 5.265 0 0 0 3.147 1.08c-1.965 1.54-4.202 2.31-6.713 2.31-.48 0-.916-.022-1.306-.067 2.511 1.619 5.279 2.428 8.303 2.428z"></path>
    </symbol>
</svg>