<svg
        xmlns="http://www.w3.org/2000/svg"
        xmlns:xlink="http://www.w3.org/1999/xlink"
        width="27px" height="22px">
    <path fill-rule="evenodd"  fill="rgb(26, 26, 26)"
          d="M8.571,21.555 C10.491,21.555 12.293,21.251 13.979,20.642 C15.664,20.034 17.104,19.219 18.298,18.198 C19.492,17.177 20.522,16.002 21.387,14.674 C22.252,13.346 22.896,11.960 23.320,10.514 C23.744,9.069 23.957,7.621 23.957,6.170 C23.957,5.857 23.951,5.623 23.940,5.467 C25.000,4.697 25.904,3.765 26.652,2.671 C25.614,3.117 24.576,3.396 23.538,3.508 C24.710,2.805 25.502,1.812 25.915,0.528 C24.844,1.164 23.700,1.599 22.483,1.834 C21.412,0.695 20.095,0.126 18.532,0.126 C17.037,0.126 15.762,0.654 14.707,1.708 C13.652,2.763 13.125,4.038 13.125,5.534 C13.125,5.935 13.170,6.348 13.259,6.772 C11.049,6.661 8.976,6.106 7.040,5.107 C5.103,4.108 3.460,2.777 2.109,1.114 C1.618,1.951 1.373,2.861 1.373,3.843 C1.373,4.769 1.590,5.628 2.026,6.421 C2.461,7.213 3.047,7.855 3.784,8.346 C2.913,8.313 2.098,8.084 1.339,7.660 L1.339,7.727 C1.339,9.032 1.749,10.179 2.570,11.167 C3.390,12.155 4.425,12.777 5.675,13.033 C5.206,13.156 4.732,13.218 4.252,13.218 C3.940,13.218 3.599,13.190 3.231,13.134 C3.577,14.217 4.213,15.107 5.140,15.804 C6.066,16.502 7.115,16.862 8.287,16.884 C6.322,18.424 4.085,19.194 1.574,19.194 C1.094,19.194 0.658,19.172 0.268,19.127 C2.779,20.746 5.547,21.555 8.571,21.555 L8.571,21.555 Z"/>
</svg>